<svg width="724" height="246" viewBox="0 0 724 246" fill="none" xmlns="http://www.w3.org/2000/svg">
<g clip-path="url(#clip0_549_6)">
<path d="M36.5926 128.733V21.6906H65.8667V128.733H36.5926ZM0 25.2175V0H102.638V25.2175H0Z" fill="#006EFF"/>
<path d="M164.766 128.733V100.165H159.946V69.1277C159.946 64.19 158.756 60.4867 156.376 58.0179C153.996 55.549 150.188 54.3146 144.952 54.3146C142.334 54.3146 138.883 54.3734 134.599 54.4909C130.315 54.6085 125.912 54.7848 121.39 55.02C116.868 55.2551 112.763 55.4902 109.074 55.7253V31.9186C111.811 31.6835 115.024 31.4483 118.713 31.2132C122.402 30.9781 126.21 30.8017 130.137 30.6842C134.064 30.5666 137.753 30.5078 141.204 30.5078C151.2 30.5078 159.589 31.9186 166.372 34.7401C173.274 37.5617 178.51 41.8528 182.08 47.6134C185.65 53.2565 187.435 60.5455 187.435 69.4804V128.733H164.766ZM133.528 131.202C126.507 131.202 120.319 129.967 114.964 127.498C109.728 125.03 105.623 121.503 102.648 116.918C99.6726 112.215 98.1851 106.631 98.1851 100.165C98.1851 93.1108 100.03 87.3501 103.719 82.8827C107.408 78.2977 112.584 74.9471 119.248 72.8309C125.912 70.5972 133.588 69.4804 142.275 69.4804H163.159V85.1752H142.096C137.098 85.1752 133.231 86.4096 130.494 88.8785C127.876 91.2297 126.567 94.4628 126.567 98.5775C126.567 102.457 127.876 105.631 130.494 108.1C133.231 110.452 137.098 111.627 142.096 111.627C145.309 111.627 148.165 111.098 150.664 110.04C153.282 108.864 155.424 106.925 157.09 104.221C158.756 101.517 159.708 97.7546 159.946 92.9344L166.729 99.9883C166.134 106.69 164.468 112.333 161.731 116.918C159.113 121.503 155.424 125.03 150.664 127.498C146.023 129.967 140.311 131.202 133.528 131.202Z" fill="#006EFF"/>
<path d="M241.655 131.731C227.732 131.731 216.843 128.909 208.989 123.266C201.135 117.623 196.97 109.687 196.494 99.4593H221.841C222.317 102.516 224.162 105.279 227.375 107.748C230.707 110.099 235.645 111.275 242.191 111.275C247.189 111.275 251.294 110.452 254.507 108.806C257.839 107.042 259.505 104.573 259.505 101.399C259.505 98.5775 258.256 96.3438 255.757 94.6979C253.258 92.9344 248.795 91.7 242.369 90.9946L234.693 90.2892C222.912 89.1136 214.047 85.8806 208.097 80.5902C202.266 75.2998 199.35 68.5399 199.35 60.3104C199.35 53.4916 201.076 47.7898 204.527 43.2048C207.978 38.6197 212.738 35.1516 218.807 32.8003C224.995 30.449 232.016 29.2734 239.87 29.2734C252.484 29.2734 262.659 32.0362 270.394 37.5617C278.129 42.9696 282.175 50.8464 282.532 61.1921H257.185C256.709 58.0179 255.043 55.3727 252.187 53.2565C249.331 51.0228 245.106 49.9059 239.513 49.9059C235.11 49.9059 231.599 50.7289 228.981 52.3748C226.363 54.0207 225.054 56.2544 225.054 59.0759C225.054 61.7799 226.185 63.8373 228.446 65.2481C230.707 66.6588 234.396 67.6581 239.513 68.2459L247.189 68.9513C259.208 70.2445 268.549 73.5363 275.213 78.8267C281.877 84.1171 285.209 91.2298 285.209 100.165C285.209 106.631 283.424 112.274 279.854 117.094C276.284 121.797 271.227 125.441 264.682 128.027C258.137 130.496 250.461 131.731 241.655 131.731Z" fill="#006EFF"/>
<path d="M365.475 128.733L334.594 83.5882H320.849L360.655 32.095H390.643L353.158 80.0612L353.515 66.3062L397.605 128.733H365.475ZM296.573 128.733V0H325.133V128.733H296.573Z" fill="#006EFF"/>
<path d="M460.777 128.733V100.165H455.958V69.1277C455.958 64.19 454.768 60.4867 452.388 58.0179C450.008 55.549 446.2 54.3146 440.964 54.3146C438.346 54.3146 434.895 54.3734 430.611 54.4909C426.327 54.6085 421.923 54.7848 417.401 55.02C412.879 55.2551 408.774 55.4902 405.085 55.7253V31.9186C407.822 31.6835 411.035 31.4483 414.724 31.2132C418.413 30.9781 422.221 30.8017 426.148 30.6842C430.075 30.5666 433.764 30.5078 437.215 30.5078C447.211 30.5078 455.601 31.9186 462.384 34.7401C469.286 37.5617 474.522 41.8528 478.092 47.6134C481.662 53.2565 483.447 60.5455 483.447 69.4804V128.733H460.777ZM429.539 131.202C422.518 131.202 416.33 129.967 410.975 127.498C405.739 125.03 401.634 121.503 398.659 116.918C395.684 112.215 394.196 106.631 394.196 100.165C394.196 93.1108 396.041 87.3501 399.73 82.8827C403.419 78.2977 408.595 74.9471 415.259 72.8309C421.923 70.5972 429.599 69.4804 438.286 69.4804H459.171V85.1752H438.108C433.11 85.1752 429.242 86.4096 426.505 88.8785C423.887 91.2297 422.578 94.4628 422.578 98.5775C422.578 102.457 423.887 105.631 426.505 108.1C429.242 110.452 433.11 111.627 438.108 111.627C441.321 111.627 444.177 111.098 446.676 110.04C449.294 108.864 451.436 106.925 453.102 104.221C454.768 101.517 455.72 97.7546 455.958 92.9344L462.741 99.9883C462.146 106.69 460.48 112.333 457.743 116.918C455.125 121.503 451.436 125.03 446.676 127.498C442.035 129.967 436.323 131.202 429.539 131.202Z" fill="#006EFF"/>
<path d="M501.788 128.733V0H530.526V128.733H501.788ZM490.185 20.8089V0H530.526V20.8089H490.185Z" fill="#006EFF"/>
<path d="M548.632 167V143.017H568.981C572.075 143.017 574.693 142.605 576.835 141.782C578.977 141.077 580.702 139.843 582.011 138.079C583.32 136.316 584.391 133.906 585.224 130.849L609.322 32.0947H636.454L609.143 136.492C607.239 144.016 604.562 150.012 601.111 154.479C597.779 158.947 593.257 162.121 587.545 164.002C581.952 166.001 574.812 167 566.125 167H548.632ZM579.334 126.617V104.573H600.04V126.617H579.334ZM567.553 126.617L537.564 32.0947H566.303L594.685 126.617H567.553Z" fill="#006EFF"/>
<path d="M680.446 131.731C666.523 131.731 655.634 128.909 647.78 123.266C639.926 117.623 635.761 109.687 635.285 99.4593H660.632C661.108 102.516 662.953 105.279 666.166 107.748C669.498 110.099 674.436 111.275 680.981 111.275C685.979 111.275 690.085 110.452 693.298 108.806C696.63 107.042 698.296 104.573 698.296 101.399C698.296 98.5775 697.046 96.3438 694.547 94.6979C692.048 92.9344 687.586 91.7 681.16 90.9946L673.484 90.2892C661.703 89.1136 652.838 85.8806 646.888 80.5902C641.057 75.2998 638.141 68.5399 638.141 60.3104C638.141 53.4916 639.867 47.7898 643.318 43.2048C646.769 38.6197 651.529 35.1516 657.598 32.8003C663.786 30.449 670.807 29.2734 678.661 29.2734C691.275 29.2734 701.449 32.0362 709.185 37.5617C716.92 42.9696 720.966 50.8464 721.323 61.1921H695.975C695.499 58.0179 693.833 55.3727 690.977 53.2565C688.121 51.0228 683.897 49.9059 678.304 49.9059C673.901 49.9059 670.39 50.7289 667.772 52.3748C665.154 54.0207 663.845 56.2544 663.845 59.0759C663.845 61.7799 664.976 63.8373 667.237 65.2481C669.498 66.6588 673.187 67.6581 678.304 68.2459L685.979 68.9513C697.998 70.2445 707.34 73.5363 714.004 78.8267C720.668 84.1171 724 91.2298 724 100.165C724 106.631 722.215 112.274 718.645 117.094C715.075 121.797 710.018 125.441 703.472 128.027C696.927 130.496 689.252 131.731 680.446 131.731Z" fill="#006EFF"/>
</g>
<path d="M60.168 199.368C55.416 199.368 51.336 198.528 47.928 196.848C44.52 195.168 41.736 192.984 39.576 190.296C37.464 187.608 35.904 184.68 34.896 181.512C33.888 178.344 33.384 175.296 33.384 172.368V170.784C33.384 167.52 33.888 164.304 34.896 161.136C35.952 157.968 37.56 155.088 39.72 152.496C41.88 149.904 44.616 147.84 47.928 146.304C51.288 144.72 55.248 143.928 59.808 143.928C64.56 143.928 68.688 144.792 72.192 146.52C75.744 148.2 78.576 150.6 80.688 153.72C82.8 156.792 84.072 160.392 84.504 164.52H74.208C73.824 162.12 72.96 160.104 71.616 158.472C70.32 156.792 68.664 155.544 66.648 154.728C64.632 153.864 62.352 153.432 59.808 153.432C57.216 153.432 54.912 153.888 52.896 154.8C50.88 155.664 49.2 156.912 47.856 158.544C46.512 160.176 45.48 162.096 44.76 164.304C44.088 166.512 43.752 168.96 43.752 171.648C43.752 174.24 44.088 176.64 44.76 178.848C45.48 181.056 46.536 183 47.928 184.68C49.32 186.312 51.024 187.584 53.04 188.496C55.104 189.408 57.48 189.864 60.168 189.864C64.104 189.864 67.416 188.904 70.104 186.984C72.84 185.016 74.496 182.28 75.072 178.776H85.368C84.888 182.52 83.616 185.952 81.552 189.072C79.488 192.192 76.656 194.688 73.056 196.56C69.456 198.432 65.16 199.368 60.168 199.368ZM116.892 198V186.408H115.236V173.52C115.236 171.264 114.684 169.584 113.58 168.48C112.476 167.376 110.772 166.824 108.468 166.824C107.268 166.824 105.828 166.848 104.148 166.896C102.468 166.944 100.764 167.016 99.0356 167.112C97.3556 167.16 95.8436 167.232 94.4996 167.328V158.832C95.6036 158.736 96.8516 158.64 98.2436 158.544C99.6356 158.448 101.052 158.4 102.492 158.4C103.98 158.352 105.372 158.328 106.668 158.328C110.7 158.328 114.036 158.856 116.676 159.912C119.364 160.968 121.38 162.624 122.724 164.88C124.116 167.136 124.812 170.088 124.812 173.736V198H116.892ZM104.292 199.008C101.46 199.008 98.9636 198.504 96.8036 197.496C94.6916 196.488 93.0356 195.048 91.8356 193.176C90.6836 191.304 90.1076 189.048 90.1076 186.408C90.1076 183.528 90.8036 181.176 92.1956 179.352C93.6356 177.528 95.6276 176.16 98.1716 175.248C100.764 174.336 103.788 173.88 107.244 173.88H116.316V179.856H107.1C104.796 179.856 103.02 180.432 101.772 181.584C100.572 182.688 99.9716 184.128 99.9716 185.904C99.9716 187.68 100.572 189.12 101.772 190.224C103.02 191.328 104.796 191.88 107.1 191.88C108.492 191.88 109.764 191.64 110.916 191.16C112.116 190.632 113.1 189.768 113.868 188.568C114.684 187.32 115.14 185.64 115.236 183.528L117.684 186.336C117.444 189.072 116.772 191.376 115.668 193.248C114.612 195.12 113.124 196.56 111.204 197.568C109.332 198.528 107.028 199.008 104.292 199.008ZM136.036 198V145.44H146.044V198H136.036ZM131.14 152.928V145.44H146.044V152.928H131.14ZM157.973 198V145.44H167.981V198H157.973ZM153.077 152.928V145.44H167.981V152.928H153.077ZM194.946 198V158.904H202.866V175.68H202.146C202.146 171.744 202.65 168.456 203.658 165.816C204.666 163.128 206.154 161.112 208.122 159.768C210.138 158.376 212.634 157.68 215.61 157.68H216.042C219.066 157.68 221.562 158.376 223.53 159.768C225.546 161.112 227.034 163.128 227.994 165.816C229.002 168.456 229.506 171.744 229.506 175.68H226.986C226.986 171.744 227.49 168.456 228.498 165.816C229.554 163.128 231.066 161.112 233.034 159.768C235.05 158.376 237.546 157.68 240.522 157.68H240.954C243.978 157.68 246.498 158.376 248.514 159.768C250.53 161.112 252.042 163.128 253.05 165.816C254.106 168.456 254.634 171.744 254.634 175.68V198H244.626V174.744C244.626 172.296 244.002 170.352 242.754 168.912C241.506 167.424 239.73 166.68 237.426 166.68C235.122 166.68 233.274 167.448 231.882 168.984C230.49 170.472 229.794 172.488 229.794 175.032V198H219.786V174.744C219.786 172.296 219.162 170.352 217.914 168.912C216.666 167.424 214.89 166.68 212.586 166.68C210.282 166.68 208.434 167.448 207.042 168.984C205.65 170.472 204.954 172.488 204.954 175.032V198H194.946ZM289.017 198V186.408H287.361V173.52C287.361 171.264 286.809 169.584 285.705 168.48C284.601 167.376 282.897 166.824 280.593 166.824C279.393 166.824 277.953 166.848 276.273 166.896C274.593 166.944 272.889 167.016 271.161 167.112C269.481 167.16 267.969 167.232 266.625 167.328V158.832C267.729 158.736 268.977 158.64 270.369 158.544C271.761 158.448 273.177 158.4 274.617 158.4C276.105 158.352 277.497 158.328 278.793 158.328C282.825 158.328 286.161 158.856 288.801 159.912C291.489 160.968 293.505 162.624 294.849 164.88C296.241 167.136 296.937 170.088 296.937 173.736V198H289.017ZM276.417 199.008C273.585 199.008 271.089 198.504 268.929 197.496C266.817 196.488 265.161 195.048 263.961 193.176C262.809 191.304 262.233 189.048 262.233 186.408C262.233 183.528 262.929 181.176 264.321 179.352C265.761 177.528 267.753 176.16 270.297 175.248C272.889 174.336 275.913 173.88 279.369 173.88H288.441V179.856H279.225C276.921 179.856 275.145 180.432 273.897 181.584C272.697 182.688 272.097 184.128 272.097 185.904C272.097 187.68 272.697 189.12 273.897 190.224C275.145 191.328 276.921 191.88 279.225 191.88C280.617 191.88 281.889 191.64 283.041 191.16C284.241 190.632 285.225 189.768 285.993 188.568C286.809 187.32 287.265 185.64 287.361 183.528L289.809 186.336C289.569 189.072 288.897 191.376 287.793 193.248C286.737 195.12 285.249 196.56 283.329 197.568C281.457 198.528 279.153 199.008 276.417 199.008ZM307.657 198V158.904H315.577V175.68H314.857C314.857 171.696 315.385 168.384 316.441 165.744C317.497 163.056 319.057 161.04 321.121 159.696C323.233 158.352 325.849 157.68 328.969 157.68H329.401C334.057 157.68 337.585 159.192 339.985 162.216C342.385 165.192 343.585 169.656 343.585 175.608V198H333.577V174.744C333.577 172.344 332.881 170.4 331.489 168.912C330.145 167.424 328.273 166.68 325.873 166.68C323.425 166.68 321.433 167.448 319.897 168.984C318.409 170.472 317.665 172.488 317.665 175.032V198H307.657ZM378.032 198V186.408H376.376V173.52C376.376 171.264 375.824 169.584 374.72 168.48C373.616 167.376 371.912 166.824 369.608 166.824C368.408 166.824 366.968 166.848 365.288 166.896C363.608 166.944 361.904 167.016 360.176 167.112C358.496 167.16 356.984 167.232 355.64 167.328V158.832C356.744 158.736 357.992 158.64 359.384 158.544C360.776 158.448 362.192 158.4 363.632 158.4C365.12 158.352 366.512 158.328 367.808 158.328C371.84 158.328 375.176 158.856 377.816 159.912C380.504 160.968 382.52 162.624 383.864 164.88C385.256 167.136 385.952 170.088 385.952 173.736V198H378.032ZM365.432 199.008C362.6 199.008 360.104 198.504 357.944 197.496C355.832 196.488 354.176 195.048 352.976 193.176C351.824 191.304 351.248 189.048 351.248 186.408C351.248 183.528 351.944 181.176 353.336 179.352C354.776 177.528 356.768 176.16 359.312 175.248C361.904 174.336 364.928 173.88 368.384 173.88H377.456V179.856H368.24C365.936 179.856 364.16 180.432 362.912 181.584C361.712 182.688 361.112 184.128 361.112 185.904C361.112 187.68 361.712 189.12 362.912 190.224C364.16 191.328 365.936 191.88 368.24 191.88C369.632 191.88 370.904 191.64 372.056 191.16C373.256 190.632 374.24 189.768 375.008 188.568C375.824 187.32 376.28 185.64 376.376 183.528L378.824 186.336C378.584 189.072 377.912 191.376 376.808 193.248C375.752 195.12 374.264 196.56 372.344 197.568C370.472 198.528 368.168 199.008 365.432 199.008ZM411.936 213.408C410.064 213.408 408.144 213.336 406.176 213.192C404.256 213.048 402.456 212.856 400.776 212.616V204.264C402.504 204.456 404.352 204.624 406.32 204.768C408.288 204.96 410.136 205.056 411.864 205.056C415.08 205.056 417.672 204.672 419.64 203.904C421.656 203.136 423.12 201.912 424.032 200.232C424.992 198.6 425.472 196.512 425.472 193.968V186.264L427.632 181.368C427.488 184.968 426.744 188.04 425.4 190.584C424.056 193.08 422.232 195 419.928 196.344C417.624 197.64 414.96 198.288 411.936 198.288C409.248 198.288 406.8 197.784 404.592 196.776C402.432 195.768 400.56 194.376 398.976 192.6C397.44 190.824 396.24 188.736 395.376 186.336C394.512 183.936 394.08 181.368 394.08 178.632V177.12C394.08 174.384 394.512 171.84 395.376 169.488C396.288 167.088 397.56 165 399.192 163.224C400.824 161.448 402.768 160.08 405.024 159.12C407.28 158.16 409.776 157.68 412.512 157.68C415.728 157.68 418.512 158.376 420.864 159.768C423.264 161.16 425.136 163.176 426.48 165.816C427.824 168.456 428.568 171.696 428.712 175.536L426.984 175.824V158.904H434.904V193.392C434.904 198.144 434.088 201.984 432.456 204.912C430.824 207.84 428.304 209.976 424.896 211.32C421.536 212.712 417.216 213.408 411.936 213.408ZM414.816 189.72C416.736 189.72 418.488 189.288 420.072 188.424C421.656 187.56 422.928 186.312 423.888 184.68C424.848 183.048 425.328 181.08 425.328 178.776V176.256C425.328 174.048 424.824 172.176 423.816 170.64C422.856 169.104 421.584 167.952 420 167.184C418.416 166.368 416.688 165.96 414.816 165.96C412.704 165.96 410.832 166.464 409.2 167.472C407.616 168.432 406.368 169.8 405.456 171.576C404.544 173.352 404.088 175.464 404.088 177.912C404.088 180.312 404.544 182.4 405.456 184.176C406.368 185.952 407.616 187.32 409.2 188.28C410.832 189.24 412.704 189.72 414.816 189.72ZM463.317 199.368C459.957 199.368 457.005 198.792 454.461 197.64C451.965 196.488 449.877 194.952 448.197 193.032C446.565 191.064 445.317 188.88 444.453 186.48C443.637 184.08 443.229 181.632 443.229 179.136V177.768C443.229 175.176 443.637 172.68 444.453 170.28C445.317 167.832 446.565 165.672 448.197 163.8C449.877 161.88 451.941 160.368 454.389 159.264C456.837 158.112 459.669 157.536 462.885 157.536C467.109 157.536 470.637 158.472 473.469 160.344C476.349 162.168 478.509 164.592 479.949 167.616C481.389 170.592 482.109 173.808 482.109 177.264V180.864H447.477V174.744H475.845L472.749 177.768C472.749 175.272 472.389 173.136 471.669 171.36C470.949 169.584 469.845 168.216 468.357 167.256C466.917 166.296 465.093 165.816 462.885 165.816C460.677 165.816 458.805 166.32 457.269 167.328C455.733 168.336 454.557 169.8 453.741 171.72C452.973 173.592 452.589 175.848 452.589 178.488C452.589 180.936 452.973 183.12 453.741 185.04C454.509 186.912 455.685 188.4 457.269 189.504C458.853 190.56 460.869 191.088 463.317 191.088C465.765 191.088 467.757 190.608 469.293 189.648C470.829 188.64 471.813 187.416 472.245 185.976H481.461C480.885 188.664 479.781 191.016 478.149 193.032C476.517 195.048 474.429 196.608 471.885 197.712C469.389 198.816 466.533 199.368 463.317 199.368ZM490.469 198V158.904H498.389V175.464H498.173C498.173 169.848 499.373 165.6 501.773 162.72C504.173 159.84 507.701 158.4 512.357 158.4H513.797V167.112H511.061C507.701 167.112 505.085 168.024 503.213 169.848C501.389 171.624 500.477 174.216 500.477 177.624V198H490.469Z" fill="#006EFF"/>
<rect x="527" y="178" width="197" height="67" rx="27" fill="#FF4444"/>
<path d="M553.032 229.24V223.768H561.816C563.416 223.768 564.632 223.336 565.464 222.472C566.296 221.576 566.712 220.36 566.712 218.824C566.712 217.288 566.296 216.104 565.464 215.272C564.632 214.408 563.416 213.976 561.816 213.976H553.032V209.8H561.336C563.672 209.8 565.752 210.088 567.576 210.664C569.432 211.208 570.872 212.136 571.896 213.448C572.952 214.76 573.48 216.52 573.48 218.728V219.4C573.48 221.48 573.016 223.256 572.088 224.728C571.192 226.168 569.832 227.288 568.008 228.088C566.216 228.856 563.992 229.24 561.336 229.24H553.032ZM547.32 229.24V193.72H553.992V229.24H547.32ZM553.032 212.872V208.696H560.52C562.152 208.696 563.352 208.264 564.12 207.4C564.888 206.536 565.272 205.384 565.272 203.944C565.272 202.504 564.888 201.352 564.12 200.488C563.352 199.624 562.152 199.192 560.52 199.192H553.032V193.72H559.896C563.864 193.72 566.872 194.552 568.92 196.216C571 197.88 572.04 200.264 572.04 203.368V204.04C572.04 206.216 571.512 207.96 570.456 209.272C569.432 210.552 568.008 211.48 566.184 212.056C564.36 212.6 562.264 212.872 559.896 212.872H553.032ZM580.367 229V193.96H587.039V229H580.367ZM586.079 229V223.24H601.967V229H586.079ZM586.079 214.072V208.312H600.719V214.072H586.079ZM586.079 199.72V193.96H601.583V199.72H586.079ZM615.873 229V199H622.689V229H615.873ZM605.745 199.96V193.96H632.817V199.96H605.745ZM631.848 229L643.8 193.96H654.936L667.224 229H660.216L649.8 198.616L652.248 199.672H646.248L648.744 198.616L638.664 229H631.848ZM640.2 219.688L642.36 213.928H656.568L658.68 219.688H640.2ZM681.589 229V222.28C681.589 220.808 681.813 219.528 682.261 218.44C682.741 217.352 683.509 216.392 684.565 215.56C685.653 214.696 687.077 213.88 688.837 213.112L694.789 210.472C696.261 209.8 697.381 208.984 698.149 208.024C698.949 207.032 699.349 205.768 699.349 204.232C699.349 202.536 698.837 201.192 697.813 200.2C696.821 199.176 695.397 198.664 693.541 198.664C691.685 198.664 690.245 199.176 689.221 200.2C688.229 201.224 687.733 202.648 687.733 204.472H681.157C681.157 202.296 681.621 200.344 682.549 198.616C683.477 196.856 684.853 195.48 686.677 194.488C688.501 193.464 690.789 192.952 693.541 192.952C696.293 192.952 698.581 193.448 700.405 194.44C702.229 195.432 703.605 196.76 704.533 198.424C705.461 200.056 705.925 201.88 705.925 203.896V204.52C705.925 207.144 705.189 209.336 703.717 211.096C702.245 212.824 700.085 214.328 697.237 215.608L691.285 218.248C690.165 218.728 689.381 219.24 688.933 219.784C688.485 220.296 688.261 221 688.261 221.896V224.968L686.629 223.192H706.069V229H681.589Z" fill="white"/>
<defs>
<clipPath id="clip0_549_6">
<rect width="724" height="167" fill="white"/>
</clipPath>
</defs>
</svg>
